<?xml version="1.0" encoding="utf-8"?>
<!-- Generator: Adobe Illustrator 16.0.3, SVG Export Plug-In . SVG Version: 6.00 Build 0)  -->
<!DOCTYPE svg PUBLIC "-//W3C//DTD SVG 1.1//EN" "http://www.w3.org/Graphics/SVG/1.1/DTD/svg11.dtd">
<svg version="1.1" id="Layer_1" xmlns="http://www.w3.org/2000/svg" xmlns:xlink="http://www.w3.org/1999/xlink" x="0px" y="0px"
	 width="128px" height="128px" viewBox="0 0 128 128" enable-background="new 0 0 128 128" xml:space="preserve">
<g>
	<path fill="#37474F" d="M119,22.75H9c-2.75,0-5,2.25-5,5v74.501c0,2.75,2.25,4.999,5,4.999h110c2.75,0,5-2.249,5-4.999V27.75
		C124,25,121.75,22.75,119,22.75z"/>
	<rect x="11.5" y="30.25" fill="#E8F5E9" width="105.001" height="69.251"/>
	<rect x="41.001" y="107.25" fill="#CFD8DC" width="45.75" height="13.501"/>
	<rect x="27.251" y="120.751" fill="#90A4AE" width="73.5" height="3.249"/>
	<rect x="41.001" y="107.25" fill="#90A4AE" width="45.75" height="3.751"/>
	<path display="none" fill="#F2F2F2" d="M107.5,32v63.501c0,2.25-1.952,4-4.462,4H14.63c-2.51,0-4.463-1.75-4.463-4V32H107.5z"/>
	<g>
		<path fill="#FFFFFF" d="M33.5,38.75v9.5c-0.249,0-0.249,0-0.5,0c-0.25,0-0.25,0-0.499,0v-9.5H33.5z"/>
		<path fill="#FFFFFF" d="M33.5,75.25v9.5h-0.999v-9.5c0.249,0,0.249,0,0.499,0C33.251,75.25,33.251,75.25,33.5,75.25z"/>
		<path fill="#FFFFFF" d="M49.5,45.75l-6.75,6.75C42.5,52.25,42.251,52,42,51.75L48.75,45L49.5,45.75z"/>
		<path fill="#FFFFFF" d="M23.75,71.751l-6.749,6.75L16.25,77.75L23,71C23.25,71.251,23.501,71.501,23.75,71.751z"/>
		<path fill="#FFFFFF" d="M56.001,61.249v1.001H46.75c0-0.25,0-0.25,0-0.499c0-0.25,0-0.25,0-0.502H56.001L56.001,61.249z"/>
		<path fill="#FFFFFF" d="M21.5,61.751c0,0.249,0,0.249,0,0.499h-9.25v-1.001h9.25C21.5,61.249,21.5,61.501,21.5,61.751z"/>
		<path fill="#FFFFFF" d="M49.5,77.5l-0.75,0.751l-6.499-6.5c0.249-0.25,0.499-0.5,0.75-0.751L49.5,77.5z"/>
		<path fill="#FFFFFF" d="M23.75,51.75C23.501,52,23.25,52.251,23,52.5l-6.75-6.75L17.001,45L23.75,51.75z"/>
		<path fill="#FFFFFF" d="M28.251,49C28,49,27.75,49.25,27.25,49.5L25,44.25l1-0.5L28.251,49z"/>
		<path fill="#FFFFFF" d="M40.75,79.5l-1,0.501L37.5,74.75c0.251,0,0.5-0.249,1.002-0.501L40.75,79.5z"/>
		<path fill="#FFFFFF" d="M20.75,56c-0.249,0.249-0.249,0.501-0.5,1l-5.249-2.248l0.5-1.002L20.75,56z"/>
		<path fill="#FFFFFF" d="M51.001,68.751L50.5,69.752l-5.25-2.251c0.251-0.25,0.251-0.5,0.5-1.001L51.001,68.751z"/>
		<path fill="#FFFFFF" d="M20.75,67.251L15.501,69.5l-0.5-0.999l5.249-2.251C20.501,66.75,20.501,67.001,20.75,67.251z"/>
		<path fill="#FFFFFF" d="M51.001,54.752L45.75,57c0-0.249-0.249-0.499-0.5-1l5.25-2.25L51.001,54.752z"/>
		<path fill="#FFFFFF" d="M28.251,74.501L26,79.751l-1-0.501l2.25-5.249C27.75,74.249,28,74.249,28.251,74.501z"/>
		<path fill="#FFFFFF" d="M40.75,44l-2,5.25c-0.248-0.25-0.5-0.25-0.999-0.499L40,43.501L40.75,44z"/>
	</g>
	<path fill="#FFD54F" d="M102.501,4H25.5c-2.75,0-5,2.25-5,5.001v13h87.25v-13C107.5,6.25,105.251,4,102.501,4z"/>
	<ellipse fill="#2E7D32" cx="53.25" cy="13" rx="3" ry="3"/>
	<ellipse fill="#FF8F00" cx="41.751" cy="13" rx="3" ry="3"/>
	<ellipse fill="#C62828" cx="30.25" cy="13" rx="3" ry="3"/>
	<path fill="#E4EAEF" d="M107.5,34v11.75C106.002,47,104,47.5,102,47.5c-5.249,0-9.499-4.249-9.499-9.5c0,5.251-4.25,9.5-9.501,9.5
		c-5.25,0-9.5-4.249-9.5-9.5c0,5.251-4.25,9.5-9.5,9.5s-9.499-4.249-9.499-9.5c0,5.251-4.25,9.5-9.501,9.5
		c-5.25,0-9.499-4.249-9.499-9.5c0,5.251-4.25,9.5-9.5,9.5c-2.001,0-4-0.75-5.501-1.75V34H107.5z"/>
	<polygon fill="#4CAF50" points="35.501,32 16.501,32 20.5,22.001 37.75,22.001 	"/>
	<polygon fill="#CDD6E0" points="54.501,32 35.501,32 37.75,22.001 55.249,22.001 	"/>
	<polygon fill="#4CAF50" points="73.5,32 54.501,32 55.249,22.001 72.751,22.001 	"/>
	<polygon fill="#CDD6E0" points="92.501,32 73.5,32 72.751,22.001 90.251,22.001 	"/>
	<polygon fill="#4CAF50" points="111.5,32 92.501,32 90.251,22.001 107.5,22.001 	"/>
	<g>
		<path fill="#ACB3BA" d="M35.501,36.25c0,5.251,4.249,9.5,9.499,9.5c5.251,0,9.501-4.249,9.501-9.5V32h-19V36.25L35.501,36.25z"/>
		<path fill="#ACB3BA" d="M73.5,32v4.25c0,5.251,4.25,9.5,9.5,9.5c5.251,0,9.501-4.249,9.501-9.5V32H73.5z"/>
	</g>
	<g>
		<path fill="#388E3C" d="M16.501,36.25c0,5.251,4.249,9.5,9.5,9.5c5.25,0,9.5-4.249,9.5-9.5V32h-19V36.25z"/>
		<path fill="#388E3C" d="M54.501,36.25c0,5.251,4.249,9.5,9.499,9.5s9.5-4.249,9.5-9.5V32H54.501V36.25L54.501,36.25z"/>
		<path fill="#388E3C" d="M92.501,32v4.25c0,5.251,4.25,9.5,9.499,9.5c5.25,0,9.5-4.249,9.5-9.5V32H92.501z"/>
	</g>
	<ellipse fill="#4CAF50" cx="33" cy="61.751" rx="14.75" ry="15.001"/>
	<g display="none">
		<path display="inline" fill="#FFFFFF" d="M32.501,66.25l-0.5-1.749H43.5V55.75H29.75L29,52.5h-3.999V54H28l3.501,13.75H44v-1.5
			H32.501z M42,57v5.751H31.751L30.251,57H42z"/>
		<ellipse display="inline" fill="#FFFFFF" cx="34.75" cy="70.5" rx="1.75" ry="1.75"/>
		<ellipse display="inline" fill="#FFFFFF" cx="41.25" cy="70.5" rx="1.75" ry="1.75"/>
	</g>
	<g>
		<path fill="#81C784" d="M112.083,60.158H72.111h-2.467h-4.299c-0.807,0-1.47,0.661-1.47,1.47v3.205v30.54
			c0,0.81,0.663,1.471,1.47,1.471h39.973h2.467h4.298c0.81,0,1.471-0.661,1.471-1.471v-3.205v-30.54
			C113.554,60.819,112.893,60.158,112.083,60.158z"/>
		<path fill="#66BB6A" d="M69.71,95.373V61.628c0-0.81,0.66-1.471,1.469-1.471h-5.831c-0.809,0-1.471,0.661-1.471,1.471v33.745
			c0,0.81,0.662,1.471,1.471,1.471h5.831C70.37,96.844,69.71,96.183,69.71,95.373z"/>
	</g>
	<polygon fill="#40596B" points="47.875,61.253 52.625,78.252 56.875,74.002 60.875,78.252 64.625,74.502 60.625,70.252 
		64.625,66.002 	"/>
	<g>
		<g>
			<path fill="#FFFFFF" d="M43.672,57.209c-0.005-0.005-0.01-0.01-0.016-0.015l-4.454-3.959c-0.041-0.037-0.088-0.066-0.14-0.084
				l-3.222-1.152c-0.22-0.079-0.463,0.034-0.542,0.253c-0.014,0.04-0.023,0.082-0.025,0.124c0,0.093-0.139,2.24-2.286,2.273
				c-2.16-0.033-2.294-2.18-2.299-2.273c-0.013-0.233-0.212-0.413-0.446-0.4c-0.04,0.002-0.08,0.01-0.118,0.023l-3.217,1.165
				c-0.051,0.02-0.099,0.047-0.14,0.085l-4.424,3.946c-0.17,0.161-0.177,0.429-0.016,0.598c0.005,0.005,0.01,0.011,0.016,0.016
				l3.522,3.56v9.738c0,0.234,0.189,0.424,0.423,0.424h13.42c0.234,0,0.424-0.189,0.424-0.424v-9.738l3.522-3.56
				C43.826,57.646,43.833,57.378,43.672,57.209z M40.122,60.161v-1.965c0-0.233-0.19-0.422-0.423-0.422
				c-0.234,0-0.424,0.189-0.424,0.422V70.66H26.697V58.196c0-0.233-0.19-0.422-0.424-0.422c-0.233,0-0.423,0.189-0.423,0.422v1.97
				l-2.604-2.638l4.031-3.607l2.65-0.956c0.329,1.692,1.966,2.796,3.658,2.469c1.249-0.242,2.226-1.219,2.469-2.469l2.65,0.956
				l4.018,3.607L40.122,60.161z"/>
		</g>
	</g>
	<g>
		<g>
			<g>
				<path fill="#FFFFFF" d="M89.332,74.548c0.044,0.088,0.087,0.175,0.131,0.24s0.109,0.131,0.152,0.196
					c0.065,0.065,0.131,0.131,0.219,0.196c0.065,0.044,0.152,0.109,0.262,0.131c0.087,0.044,0.175,0.065,0.283,0.088
					c0.109,0.021,0.196,0.021,0.284,0.021c0.087,0,0.196,0,0.283-0.021c0.088-0.022,0.175-0.044,0.24-0.088h0.021
					c0.087-0.044,0.175-0.087,0.262-0.152c0.065-0.044,0.131-0.109,0.196-0.175l0.022-0.021c0.065-0.065,0.108-0.131,0.152-0.196
					s0.088-0.131,0.109-0.219c0-0.021,0-0.021,0.021-0.043c0.043-0.087,0.065-0.197,0.087-0.284
					c0.022-0.087,0.022-0.196,0.022-0.283s0-0.196-0.022-0.283c-0.021-0.088-0.044-0.175-0.087-0.284
					c-0.065-0.153-0.153-0.283-0.262-0.393c-0.021-0.021-0.021-0.021-0.044-0.044c-0.065-0.065-0.131-0.109-0.218-0.174
					c-0.087-0.044-0.153-0.088-0.24-0.131c-0.087-0.044-0.174-0.065-0.262-0.088c-0.109-0.021-0.196-0.021-0.283-0.021
					c-0.088,0-0.196,0-0.284,0.021c-0.087,0.022-0.175,0.044-0.262,0.088h-0.021c-0.088,0.043-0.175,0.087-0.24,0.131
					c-0.087,0.064-0.152,0.108-0.219,0.174c-0.064,0.065-0.13,0.131-0.174,0.197c-0.044,0.064-0.087,0.152-0.131,0.239
					s-0.065,0.175-0.088,0.262c-0.021,0.109-0.021,0.196-0.021,0.284c0,0.087,0,0.196,0.021,0.283
					C89.267,74.374,89.311,74.461,89.332,74.548z"/>
				<path fill="#FFFFFF" d="M92.364,82.533h-0.502v-5.345c0-0.306-0.239-0.567-0.567-0.567h-2.29c-0.306,0-0.567,0.239-0.567,0.567
					v1.178c0,0.306,0.24,0.566,0.567,0.566h0.458v3.622h-0.458c-0.306,0-0.567,0.24-0.567,0.567V84.3
					c0,0.306,0.24,0.567,0.567,0.567h3.359c0.306,0,0.567-0.24,0.567-0.567v-1.178C92.932,82.795,92.67,82.533,92.364,82.533z"/>
				<path fill="#FFFFFF" d="M90.685,66.76c-6.588,0-11.934,5.345-11.934,11.934s5.346,11.934,11.934,11.934
					c6.589,0,11.934-5.345,11.934-11.934S97.273,66.76,90.685,66.76z M90.685,89.056c-5.716,0-10.362-4.646-10.362-10.362
					s4.646-10.362,10.362-10.362s10.362,4.646,10.362,10.362S96.4,89.056,90.685,89.056z"/>
			</g>
		</g>
	</g>
</g>
</svg>
